<svg id="visual" viewBox="0 0 900 600" width="900" height="600" xmlns="http://www.w3.org/2000/svg" xmlns:xlink="http://www.w3.org/1999/xlink" version="1.1"><path d="M0 13L21.5 15C43 17 86 21 128.8 28C171.7 35 214.3 45 257.2 50C300 55 343 55 385.8 48C428.7 41 471.3 27 514.2 22C557 17 600 21 642.8 26C685.7 31 728.3 37 771.2 36C814 35 857 27 878.5 23L900 19L900 0L878.5 0C857 0 814 0 771.2 0C728.3 0 685.7 0 642.8 0C600 0 557 0 514.2 0C471.3 0 428.7 0 385.8 0C343 0 300 0 257.2 0C214.3 0 171.7 0 128.8 0C86 0 43 0 21.5 0L0 0Z" fill="#fe5f55"></path><path d="M0 73L21.5 98C43 123 86 173 128.8 190C171.7 207 214.3 191 257.2 194C300 197 343 219 385.8 205C428.7 191 471.3 141 514.2 120C557 99 600 107 642.8 126C685.7 145 728.3 175 771.2 177C814 179 857 153 878.5 140L900 127L900 17L878.5 21C857 25 814 33 771.2 34C728.3 35 685.7 29 642.8 24C600 19 557 15 514.2 20C471.3 25 428.7 39 385.8 46C343 53 300 53 257.2 48C214.3 43 171.7 33 128.8 26C86 19 43 15 21.5 13L0 11Z" fill="#fd7259"></path><path d="M0 157L21.5 179C43 201 86 245 128.8 260C171.7 275 214.3 261 257.2 264C300 267 343 287 385.8 273C428.7 259 471.3 211 514.2 186C557 161 600 159 642.8 171C685.7 183 728.3 209 771.2 217C814 225 857 215 878.5 210L900 205L900 125L878.5 138C857 151 814 177 771.2 175C728.3 173 685.7 143 642.8 124C600 105 557 97 514.2 118C471.3 139 428.7 189 385.8 203C343 217 300 195 257.2 192C214.3 189 171.7 205 128.8 188C86 171 43 121 21.5 96L0 71Z" fill="#fc845f"></path><path d="M0 211L21.5 235C43 259 86 307 128.8 322C171.7 337 214.3 319 257.2 316C300 313 343 325 385.8 310C428.7 295 471.3 253 514.2 226C557 199 600 187 642.8 198C685.7 209 728.3 243 771.2 251C814 259 857 241 878.5 232L900 223L900 203L878.5 208C857 213 814 223 771.2 215C728.3 207 685.7 181 642.8 169C600 157 557 159 514.2 184C471.3 209 428.7 257 385.8 271C343 285 300 265 257.2 262C214.3 259 171.7 273 128.8 258C86 243 43 199 21.5 177L0 155Z" fill="#fa9368"></path><path d="M0 241L21.5 266C43 291 86 341 128.8 356C171.7 371 214.3 351 257.2 358C300 365 343 399 385.8 394C428.7 389 471.3 345 514.2 319C557 293 600 285 642.8 290C685.7 295 728.3 313 771.2 315C814 317 857 303 878.5 296L900 289L900 221L878.5 230C857 239 814 257 771.2 249C728.3 241 685.7 207 642.8 196C600 185 557 197 514.2 224C471.3 251 428.7 293 385.8 308C343 323 300 311 257.2 314C214.3 317 171.7 335 128.8 320C86 305 43 257 21.5 233L0 209Z" fill="#fa966a"></path><path d="M0 463L21.5 472C43 481 86 499 128.8 488C171.7 477 214.3 437 257.2 438C300 439 343 481 385.8 486C428.7 491 471.3 459 514.2 450C557 441 600 455 642.8 457C685.7 459 728.3 449 771.2 449C814 449 857 459 878.5 464L900 469L900 287L878.5 294C857 301 814 315 771.2 313C728.3 311 685.7 293 642.8 288C600 283 557 291 514.2 317C471.3 343 428.7 387 385.8 392C343 397 300 363 257.2 356C214.3 349 171.7 369 128.8 354C86 339 43 289 21.5 264L0 239Z" fill="#fa9368"></path><path d="M0 505L21.5 512C43 519 86 533 128.8 525C171.7 517 214.3 487 257.2 487C300 487 343 517 385.8 518C428.7 519 471.3 491 514.2 488C557 485 600 507 642.8 506C685.7 505 728.3 481 771.2 481C814 481 857 505 878.5 517L900 529L900 467L878.5 462C857 457 814 447 771.2 447C728.3 447 685.7 457 642.8 455C600 453 557 439 514.2 448C471.3 457 428.7 489 385.8 484C343 479 300 437 257.2 436C214.3 435 171.7 475 128.8 486C86 497 43 479 21.5 470L0 461Z" fill="#fc845f"></path><path d="M0 577L21.5 579C43 581 86 585 128.8 584C171.7 583 214.3 577 257.2 576C300 575 343 579 385.8 578C428.7 577 471.3 571 514.2 568C557 565 600 565 642.8 567C685.7 569 728.3 573 771.2 577C814 581 857 585 878.5 587L900 589L900 527L878.5 515C857 503 814 479 771.2 479C728.3 479 685.7 503 642.8 504C600 505 557 483 514.2 486C471.3 489 428.7 517 385.8 516C343 515 300 485 257.2 485C214.3 485 171.7 515 128.8 523C86 531 43 517 21.5 510L0 503Z" fill="#fd7259"></path><path d="M0 601L21.5 601C43 601 86 601 128.8 601C171.7 601 214.3 601 257.2 601C300 601 343 601 385.8 601C428.7 601 471.3 601 514.2 601C557 601 600 601 642.8 601C685.7 601 728.3 601 771.2 601C814 601 857 601 878.5 601L900 601L900 587L878.5 585C857 583 814 579 771.2 575C728.3 571 685.7 567 642.8 565C600 563 557 563 514.2 566C471.3 569 428.7 575 385.8 576C343 577 300 573 257.2 574C214.3 575 171.7 581 128.8 582C86 583 43 579 21.5 577L0 575Z" fill="#fe5f55"></path></svg>