<svg id="visual" viewBox="0 0 900 600" width="900" height="600" xmlns="http://www.w3.org/2000/svg" xmlns:xlink="http://www.w3.org/1999/xlink" version="1.1"><rect x="0" y="0" width="900" height="600" fill="#4f6367"></rect><path d="M0 423L11.5 419.7C23 416.3 46 409.7 69 415C92 420.3 115 437.7 138.2 441.5C161.3 445.3 184.7 435.7 207.8 427C231 418.3 254 410.7 277 411C300 411.3 323 419.7 346 415.7C369 411.7 392 395.3 415.2 387.8C438.3 380.3 461.7 381.7 484.8 386C508 390.3 531 397.7 554 407.2C577 416.7 600 428.3 623 430.5C646 432.7 669 425.3 692.2 425.7C715.3 426 738.7 434 761.8 427.5C785 421 808 400 831 392.8C854 385.7 877 392.3 888.5 395.7L900 399L900 601L888.5 601C877 601 854 601 831 601C808 601 785 601 761.8 601C738.7 601 715.3 601 692.2 601C669 601 646 601 623 601C600 601 577 601 554 601C531 601 508 601 484.8 601C461.7 601 438.3 601 415.2 601C392 601 369 601 346 601C323 601 300 601 277 601C254 601 231 601 207.8 601C184.7 601 161.3 601 138.2 601C115 601 92 601 69 601C46 601 23 601 11.5 601L0 601Z" fill="#eef5db"></path><path d="M0 430L11.5 430.2C23 430.3 46 430.7 69 433.3C92 436 115 441 138.2 441.3C161.3 441.7 184.7 437.3 207.8 435.5C231 433.7 254 434.3 277 443.7C300 453 323 471 346 476.7C369 482.3 392 475.7 415.2 475.2C438.3 474.7 461.7 480.3 484.8 483.8C508 487.3 531 488.7 554 480.8C577 473 600 456 623 448.3C646 440.7 669 442.3 692.2 441.7C715.3 441 738.7 438 761.8 444C785 450 808 465 831 462.5C854 460 877 440 888.5 430L900 420L900 601L888.5 601C877 601 854 601 831 601C808 601 785 601 761.8 601C738.7 601 715.3 601 692.2 601C669 601 646 601 623 601C600 601 577 601 554 601C531 601 508 601 484.8 601C461.7 601 438.3 601 415.2 601C392 601 369 601 346 601C323 601 300 601 277 601C254 601 231 601 207.8 601C184.7 601 161.3 601 138.2 601C115 601 92 601 69 601C46 601 23 601 11.5 601L0 601Z" fill="#e6dba5"></path><path d="M0 452L11.5 455C23 458 46 464 69 464.2C92 464.3 115 458.7 138.2 461.8C161.3 465 184.7 477 207.8 477.5C231 478 254 467 277 462.2C300 457.3 323 458.7 346 465.8C369 473 392 486 415.2 487.7C438.3 489.3 461.7 479.7 484.8 472.8C508 466 531 462 554 466.5C577 471 600 484 623 491C646 498 669 499 692.2 496.2C715.3 493.3 738.7 486.7 761.8 487.5C785 488.3 808 496.7 831 498.2C854 499.7 877 494.3 888.5 491.7L900 489L900 601L888.5 601C877 601 854 601 831 601C808 601 785 601 761.8 601C738.7 601 715.3 601 692.2 601C669 601 646 601 623 601C600 601 577 601 554 601C531 601 508 601 484.8 601C461.7 601 438.3 601 415.2 601C392 601 369 601 346 601C323 601 300 601 277 601C254 601 231 601 207.8 601C184.7 601 161.3 601 138.2 601C115 601 92 601 69 601C46 601 23 601 11.5 601L0 601Z" fill="#ecba76"></path><path d="M0 518L11.5 519.8C23 521.7 46 525.3 69 521.5C92 517.7 115 506.3 138.2 507.2C161.3 508 184.7 521 207.8 526C231 531 254 528 277 523.8C300 519.7 323 514.3 346 513C369 511.7 392 514.3 415.2 514.2C438.3 514 461.7 511 484.8 511.7C508 512.3 531 516.7 554 521.2C577 525.7 600 530.3 623 527C646 523.7 669 512.3 692.2 510.2C715.3 508 738.7 515 761.8 520.2C785 525.3 808 528.7 831 523.7C854 518.7 877 505.3 888.5 498.7L900 492L900 601L888.5 601C877 601 854 601 831 601C808 601 785 601 761.8 601C738.7 601 715.3 601 692.2 601C669 601 646 601 623 601C600 601 577 601 554 601C531 601 508 601 484.8 601C461.7 601 438.3 601 415.2 601C392 601 369 601 346 601C323 601 300 601 277 601C254 601 231 601 207.8 601C184.7 601 161.3 601 138.2 601C115 601 92 601 69 601C46 601 23 601 11.5 601L0 601Z" fill="#f69258"></path><path d="M0 546L11.5 546.5C23 547 46 548 69 546.2C92 544.3 115 539.7 138.2 537.5C161.3 535.3 184.7 535.7 207.8 536C231 536.3 254 536.7 277 542.2C300 547.7 323 558.3 346 563.3C369 568.3 392 567.7 415.2 566.5C438.3 565.3 461.7 563.7 484.8 561.7C508 559.7 531 557.3 554 553.5C577 549.7 600 544.3 623 540.5C646 536.7 669 534.3 692.2 533.3C715.3 532.3 738.7 532.7 761.8 536.7C785 540.7 808 548.3 831 549.2C854 550 877 544 888.5 541L900 538L900 601L888.5 601C877 601 854 601 831 601C808 601 785 601 761.8 601C738.7 601 715.3 601 692.2 601C669 601 646 601 623 601C600 601 577 601 554 601C531 601 508 601 484.8 601C461.7 601 438.3 601 415.2 601C392 601 369 601 346 601C323 601 300 601 277 601C254 601 231 601 207.8 601C184.7 601 161.3 601 138.2 601C115 601 92 601 69 601C46 601 23 601 11.5 601L0 601Z" fill="#fe5f55"></path></svg>